<?xml version="1.0" encoding="utf-8"?><svg version="1.1" id="svg8" xmlns:svg="http://www.w3.org/2000/svg" xmlns="http://www.w3.org/2000/svg" xmlns:xlink="http://www.w3.org/1999/xlink" x="0px" y="0px" viewBox="244 180.44 512 512" style="enable-background:new 244 180.44 512 512" xml:space="preserve"><style type="text/css"><![CDATA[
	.st0{fill:#32DE84;}
]]></style><g id="layer1" transform="translate(-66.970994,-261.91674)"><g id="g80302" transform="matrix(1.3212521,0,0,1.3212521,480.52565,-75.040147)"><path id="path825" d="M-100.2,678.04c-13.28,0-26.94,10.64-26.94,29.28 c0,17.04,12.01,29.07,26.94,29.07c12.33,0,17.82-8.28,17.82-8.28v3.61c0,1.71,1.61,3.61,3.61,3.61h8.91v-56.01h-12.52v7.11 C-82.38,686.41-87.92,678.04-100.2,678.04L-100.2,678.04z M-97.97,689.49c10.94,0,16.67,9.62,16.67,17.82 c0,9.14-6.81,17.82-16.65,17.82c-8.22,0-16.46-6.66-16.46-17.93C-114.41,697.01-107.32,689.49-97.97,689.49z"/><path id="path829" d="M-52.47,735.32 c-1.92,0-3.61-1.38-3.61-3.61v-52.4h12.52v6.93c2.84-4.26,8.38-8.22,16.88-8.22c13.9,0,21.3,11.08,21.3,21.44v35.85h-8.7 c-2.28,0-3.82-1.91-3.82-3.82v-29.28c0-5.74-3.52-12.72-11.66-12.72c-8.78,0-14.01,8.3-14.01,16.12v29.7H-52.47z"/><path id="path833" d="M31.12,678.04 c-13.28,0-26.94,10.64-26.94,29.28c0,17.04,12.01,29.07,26.94,29.07c12.33,0,17.82-8.28,17.82-8.28v3.61 c0,1.71,1.61,3.61,3.61,3.61h8.91V651.3H48.94v35.11C48.94,686.41,43.4,678.04,31.12,678.04L31.12,678.04z M33.35,689.49 c10.94,0,16.67,9.62,16.67,17.82c0,9.14-6.81,17.82-16.65,17.82c-8.22,0-16.46-6.66-16.46-17.93 C16.91,697.01,24,689.49,33.35,689.49z"/><path id="path835" d="M78.85,735.32 c-1.92,0-3.61-1.38-3.61-3.61v-52.4h12.52v9.34c2.15-5.23,6.8-9.97,15.06-9.97c2.3,0,4.46,0.42,4.46,0.42v12.94 c0,0-2.69-1.06-5.94-1.06c-8.78,0-13.58,8.3-13.58,16.11v28.23H78.85z"/><path id="path837" d="M183.23,735.32c-1.92,0-3.61-1.38-3.61-3.61 v-52.4h12.52v56.01H183.23z"/><path id="path839" d="M228.84,678.04 c-13.28,0-26.94,10.64-26.94,29.28c0,17.04,12.01,29.07,26.94,29.07c12.33,0,17.82-8.28,17.82-8.28v3.61 c0,1.71,1.61,3.61,3.61,3.61h8.91V651.3h-12.52v35.11C246.67,686.41,241.13,678.04,228.84,678.04L228.84,678.04z M231.07,689.49 c10.94,0,16.67,9.62,16.67,17.82c0,9.14-6.81,17.82-16.65,17.82c-8.22,0-16.46-6.66-16.46-17.93 C214.64,697.01,221.73,689.49,231.07,689.49z"/><circle id="path841" cx="185.79" cy="658.95" r="8.28"/><path id="path843" d="M140.29,678.01c-13.91,0-29.2,10.39-29.2,29.2 c0,17.14,13.02,29.17,29.17,29.17c19.9,0,29.62-16,29.62-29.06C169.88,691.29,157.37,678.01,140.29,678.01L140.29,678.01z M140.34,689.71c9.62,0,16.8,7.75,16.8,17.54c0,9.96-7.62,17.64-16.77,17.64c-8.49,0-16.75-6.91-16.75-17.48 C123.61,696.68,131.47,689.71,140.34,689.71L140.34,689.71z"/></g><path id="path80319" class="st0" d="M692.33,538.54l42.31-73.3c2.39-4.11,0.95-9.33-3.11-11.72 c-4.05-2.39-9.33-1-11.66,3.11L677,530.87c-32.71-14.94-69.52-23.27-109.12-23.27c-39.59,0-76.41,8.33-109.12,23.27l-42.87-74.24 c-2.39-4.11-7.61-5.5-11.72-3.11c-4.11,2.39-5.5,7.61-3.11,11.72l42.31,73.3C370.43,578.08,321,651.93,312.84,738.39h510.1 C814.77,651.93,765.35,578.08,692.33,538.54z M450.78,666.76c-11.83,0-21.38-9.61-21.38-21.38c0-11.83,9.61-21.38,21.38-21.38 c11.83,0,21.38,9.61,21.38,21.38C472.21,657.15,462.6,666.76,450.78,666.76z M684.95,666.76c-11.83,0-21.38-9.61-21.38-21.38 c0-11.83,9.61-21.38,21.38-21.38c11.83,0,21.38,9.61,21.38,21.38C706.38,657.15,696.77,666.76,684.95,666.76z"/></g></svg>