<svg xmlns="http://www.w3.org/2000/svg" width="830" height="262" viewBox="0 0 830 262" role="img" aria-label="Contribution activity by week and by year" font-family="-apple-system, 'Segoe UI', Helvetica, Arial, sans-serif">
<defs>
  <linearGradient id="bg" x1="0" y1="0" x2="1" y2="1"><stop offset="0" stop-color="#0a1628"/><stop offset="1" stop-color="#0d2242"/></linearGradient>
  <linearGradient id="area" x1="0" y1="0" x2="0" y2="1"><stop offset="0" stop-color="#58a6ff" stop-opacity=".5"/><stop offset="1" stop-color="#58a6ff" stop-opacity="0"/></linearGradient>
  <linearGradient id="barh" x1="0" y1="0" x2="1" y2="0"><stop offset="0" stop-color="#1f6feb"/><stop offset="1" stop-color="#58a6ff"/></linearGradient>
  <linearGradient id="barv" x1="0" y1="1" x2="0" y2="0"><stop offset="0" stop-color="#1f6feb"/><stop offset="1" stop-color="#58a6ff"/></linearGradient>
</defs>
<rect x=".5" y=".5" width="829" height="261" rx="12" fill="url(#bg)" stroke="#1d4270"/>
<text x="24.0" y="34.0" font-size="15" fill="#e6f0ff" font-weight="700" text-anchor="start">Contribution activity</text>
<text x="24.0" y="52.0" font-size="11" fill="#8fa8c8" font-weight="400" text-anchor="start">weekly, last 12 months</text>
<line x1="46" x2="508" y1="202.0" y2="202.0" stroke="#17335c" stroke-dasharray="3 4"/><text x="38.0" y="206.0" font-size="10.5" fill="#8fa8c8" font-weight="400" text-anchor="end">0</text>
<line x1="46" x2="508" y1="134.0" y2="134.0" stroke="#17335c" stroke-dasharray="3 4"/><text x="38.0" y="138.0" font-size="10.5" fill="#8fa8c8" font-weight="400" text-anchor="end">42</text>
<line x1="46" x2="508" y1="66.0" y2="66.0" stroke="#17335c" stroke-dasharray="3 4"/><text x="38.0" y="70.0" font-size="10.5" fill="#8fa8c8" font-weight="400" text-anchor="end">84</text>
<path d="M46.0,177.7 C47.5,177.7 52.0,179.6 55.1,177.7 C58.1,175.8 61.1,164.5 64.1,166.4 C67.1,168.3 70.2,194.2 73.2,189.0 C76.2,183.9 79.2,140.2 82.2,135.6 C85.3,131.0 88.3,160.4 91.3,161.5 C94.3,162.6 97.3,151.3 100.4,142.1 C103.4,132.9 106.4,109.7 109.4,106.5 C112.4,103.2 115.5,114.8 118.5,122.7 C121.5,130.5 124.5,144.5 127.5,153.4 C130.5,162.3 133.6,174.2 136.6,176.1 C139.6,178.0 142.6,172.3 145.6,164.8 C148.7,157.2 151.7,135.3 154.7,130.8 C157.7,126.2 160.7,137.0 163.8,137.2 C166.8,137.5 169.8,131.0 172.8,132.4 C175.8,133.7 178.9,140.5 181.9,145.3 C184.9,150.2 187.9,161.5 190.9,161.5 C194.0,161.5 197.0,152.3 200.0,145.3 C203.0,138.3 206.0,120.5 209.1,119.4 C212.1,118.3 215.1,136.4 218.1,138.9 C221.1,141.3 224.2,132.7 227.2,134.0 C230.2,135.3 233.2,142.9 236.2,147.0 C239.3,151.0 242.3,157.5 245.3,158.3 C248.3,159.1 251.3,156.9 254.4,151.8 C257.4,146.7 260.4,138.0 263.4,127.5 C266.4,117.0 269.5,90.8 272.5,88.7 C275.5,86.5 278.5,106.2 281.5,114.6 C284.5,122.9 287.6,133.5 290.6,138.9 C293.6,144.3 296.6,150.7 299.6,147.0 C302.7,143.2 305.7,111.1 308.7,116.2 C311.7,121.3 314.7,166.9 317.8,177.7 C320.8,188.5 323.8,185.5 326.8,181.0 C329.8,176.4 332.9,154.8 335.9,150.2 C338.9,145.6 341.9,152.1 344.9,153.4 C348.0,154.8 351.0,166.7 354.0,158.3 C357.0,149.9 360.0,103.2 363.1,103.2 C366.1,103.2 369.1,145.6 372.1,158.3 C375.1,171.0 378.2,178.5 381.2,179.3 C384.2,180.1 387.2,161.8 390.2,163.1 C393.3,164.5 396.3,184.2 399.3,187.4 C402.3,190.7 405.3,191.5 408.4,182.6 C411.4,173.7 414.4,138.9 417.4,134.0 C420.4,129.1 423.5,145.1 426.5,153.4 C429.5,161.8 432.5,188.2 435.5,184.2 C438.5,180.1 441.6,139.9 444.6,129.1 C447.6,118.3 450.6,124.0 453.6,119.4 C456.7,114.8 459.7,97.3 462.7,101.6 C465.7,105.9 468.7,150.5 471.8,145.3 C474.8,140.2 477.8,84.1 480.8,70.9 C483.8,66.0 486.9,66.0 489.9,66.0 C492.9,68.7 495.9,72.7 498.9,87.0 C502.0,101.3 506.5,141.0 508.0,151.8 L508.0,202 L46,202 Z" fill="url(#area)"/>
<path d="M46.0,177.7 C47.5,177.7 52.0,179.6 55.1,177.7 C58.1,175.8 61.1,164.5 64.1,166.4 C67.1,168.3 70.2,194.2 73.2,189.0 C76.2,183.9 79.2,140.2 82.2,135.6 C85.3,131.0 88.3,160.4 91.3,161.5 C94.3,162.6 97.3,151.3 100.4,142.1 C103.4,132.9 106.4,109.7 109.4,106.5 C112.4,103.2 115.5,114.8 118.5,122.7 C121.5,130.5 124.5,144.5 127.5,153.4 C130.5,162.3 133.6,174.2 136.6,176.1 C139.6,178.0 142.6,172.3 145.6,164.8 C148.7,157.2 151.7,135.3 154.7,130.8 C157.7,126.2 160.7,137.0 163.8,137.2 C166.8,137.5 169.8,131.0 172.8,132.4 C175.8,133.7 178.9,140.5 181.9,145.3 C184.9,150.2 187.9,161.5 190.9,161.5 C194.0,161.5 197.0,152.3 200.0,145.3 C203.0,138.3 206.0,120.5 209.1,119.4 C212.1,118.3 215.1,136.4 218.1,138.9 C221.1,141.3 224.2,132.7 227.2,134.0 C230.2,135.3 233.2,142.9 236.2,147.0 C239.3,151.0 242.3,157.5 245.3,158.3 C248.3,159.1 251.3,156.9 254.4,151.8 C257.4,146.7 260.4,138.0 263.4,127.5 C266.4,117.0 269.5,90.8 272.5,88.7 C275.5,86.5 278.5,106.2 281.5,114.6 C284.5,122.9 287.6,133.5 290.6,138.9 C293.6,144.3 296.6,150.7 299.6,147.0 C302.7,143.2 305.7,111.1 308.7,116.2 C311.7,121.3 314.7,166.9 317.8,177.7 C320.8,188.5 323.8,185.5 326.8,181.0 C329.8,176.4 332.9,154.8 335.9,150.2 C338.9,145.6 341.9,152.1 344.9,153.4 C348.0,154.8 351.0,166.7 354.0,158.3 C357.0,149.9 360.0,103.2 363.1,103.2 C366.1,103.2 369.1,145.6 372.1,158.3 C375.1,171.0 378.2,178.5 381.2,179.3 C384.2,180.1 387.2,161.8 390.2,163.1 C393.3,164.5 396.3,184.2 399.3,187.4 C402.3,190.7 405.3,191.5 408.4,182.6 C411.4,173.7 414.4,138.9 417.4,134.0 C420.4,129.1 423.5,145.1 426.5,153.4 C429.5,161.8 432.5,188.2 435.5,184.2 C438.5,180.1 441.6,139.9 444.6,129.1 C447.6,118.3 450.6,124.0 453.6,119.4 C456.7,114.8 459.7,97.3 462.7,101.6 C465.7,105.9 468.7,150.5 471.8,145.3 C474.8,140.2 477.8,84.1 480.8,70.9 C483.8,66.0 486.9,66.0 489.9,66.0 C492.9,68.7 495.9,72.7 498.9,87.0 C502.0,101.3 506.5,141.0 508.0,151.8" fill="none" stroke="#58a6ff" stroke-width="2.2" stroke-linejoin="round" stroke-linecap="round"/>
<circle cx="489.9" cy="66.0" r="4" fill="#a5d6ff" stroke="#0a1628" stroke-width="2"/><text x="479.9" y="62.0" font-size="10.5" fill="#a5d6ff" font-weight="400" text-anchor="end">peak week · 84</text>
<text x="46.0" y="222.0" font-size="10.5" fill="#8fa8c8" font-weight="400" text-anchor="start">12 months ago</text>
<text x="508.0" y="222.0" font-size="10.5" fill="#8fa8c8" font-weight="400" text-anchor="end">now</text>
<line x1="538" x2="538" y1="24" y2="238" stroke="#17335c"/>
<text x="566.0" y="34.0" font-size="15" fill="#e6f0ff" font-weight="700" text-anchor="start">By year</text>
<text x="566.0" y="52.0" font-size="11" fill="#8fa8c8" font-weight="400" text-anchor="start">all contributions, public and private</text>
<rect x="566.0" y="95.2" width="30.0" height="106.8" rx="3" fill="#1f6feb" fill-opacity="0.55"/>
<text x="581.0" y="89.2" font-size="10.5" fill="#e6f0ff" font-weight="400" text-anchor="middle">1,338</text>
<text x="581.0" y="220.0" font-size="11" fill="#8fa8c8" font-weight="400" text-anchor="middle">2021</text>
<rect x="608.0" y="183.4" width="30.0" height="18.6" rx="3" fill="#1f6feb" fill-opacity="0.55"/>
<text x="623.0" y="177.4" font-size="10.5" fill="#e6f0ff" font-weight="400" text-anchor="middle">233</text>
<text x="623.0" y="220.0" font-size="11" fill="#8fa8c8" font-weight="400" text-anchor="middle">2022</text>
<rect x="650.0" y="186.8" width="30.0" height="15.2" rx="3" fill="#1f6feb" fill-opacity="0.55"/>
<text x="665.0" y="180.8" font-size="10.5" fill="#e6f0ff" font-weight="400" text-anchor="middle">190</text>
<text x="665.0" y="220.0" font-size="11" fill="#8fa8c8" font-weight="400" text-anchor="middle">2023</text>
<rect x="692.0" y="171.5" width="30.0" height="30.5" rx="3" fill="#1f6feb" fill-opacity="0.55"/>
<text x="707.0" y="165.5" font-size="10.5" fill="#e6f0ff" font-weight="400" text-anchor="middle">382</text>
<text x="707.0" y="220.0" font-size="11" fill="#8fa8c8" font-weight="400" text-anchor="middle">2024</text>
<rect x="734.0" y="123.0" width="30.0" height="79.0" rx="3" fill="#1f6feb" fill-opacity="0.55"/>
<text x="749.0" y="117.0" font-size="10.5" fill="#e6f0ff" font-weight="400" text-anchor="middle">990</text>
<text x="749.0" y="220.0" font-size="11" fill="#8fa8c8" font-weight="400" text-anchor="middle">2025</text>
<rect x="776.0" y="84.0" width="30.0" height="118.0" rx="3" fill="url(#barv)" fill-opacity="1"/>
<text x="791.0" y="78.0" font-size="10.5" fill="#58a6ff" font-weight="700" text-anchor="middle">1,479</text>
<text x="791.0" y="220.0" font-size="11" fill="#8fa8c8" font-weight="400" text-anchor="middle">2026*</text>
<text x="806.0" y="246.0" font-size="10" fill="#8fa8c8" font-weight="400" text-anchor="end">* year to date · updated 2026-09-22</text>
</svg>
